<mxfile host="www.draw.io" modified="2019-12-20T22:33:44.740Z" agent="Mozilla/5.0 (Linux; Android 9; SAMSUNG SM-S767VL) AppleWebKit/537.36 (KHTML, like Gecko) SamsungBrowser/10.1 Chrome/71.0.3578.99 Mobile Safari/537.36" etag="wk0YW-ZHSMQVilX0AgZb" version="12.4.3" type="github" pages="1">
  <diagram id="gnfx22U66qcu4X5OtKyu" name="Page-1">
    <mxGraphModel dx="378" dy="493" grid="1" gridSize="10" guides="1" tooltips="1" connect="1" arrows="1" fold="1" page="1" pageScale="1" pageWidth="850" pageHeight="1100" math="0" shadow="0">
      <root>
        <mxCell id="0"/>
        <mxCell id="1" parent="0"/>
        <mxCell id="aa-At6rghmMv5g3kUMcR-1" value="" style="whiteSpace=wrap;html=1;" parent="1" vertex="1">
          <mxGeometry x="160" y="1200" width="40" height="80" as="geometry"/>
        </mxCell>
        <mxCell id="aa-At6rghmMv5g3kUMcR-2" value="" style="whiteSpace=wrap;html=1;" parent="1" vertex="1">
          <mxGeometry x="160" y="1120" width="40" height="80" as="geometry"/>
        </mxCell>
        <mxCell id="aa-At6rghmMv5g3kUMcR-3" value="" style="whiteSpace=wrap;html=1;" parent="1" vertex="1">
          <mxGeometry x="160" y="1040" width="40" height="80" as="geometry"/>
        </mxCell>
        <mxCell id="aa-At6rghmMv5g3kUMcR-4" value="" style="whiteSpace=wrap;html=1;" parent="1" vertex="1">
          <mxGeometry x="160" y="960" width="40" height="80" as="geometry"/>
        </mxCell>
        <mxCell id="aa-At6rghmMv5g3kUMcR-6" value="" style="whiteSpace=wrap;html=1;" parent="1" vertex="1">
          <mxGeometry x="160" y="880" width="40" height="80" as="geometry"/>
        </mxCell>
        <mxCell id="aa-At6rghmMv5g3kUMcR-7" value="" style="whiteSpace=wrap;html=1;" parent="1" vertex="1">
          <mxGeometry x="160" y="800" width="40" height="80" as="geometry"/>
        </mxCell>
        <mxCell id="aa-At6rghmMv5g3kUMcR-8" value="" style="whiteSpace=wrap;html=1;" parent="1" vertex="1">
          <mxGeometry x="160" y="720" width="40" height="80" as="geometry"/>
        </mxCell>
        <mxCell id="aa-At6rghmMv5g3kUMcR-9" value="" style="whiteSpace=wrap;html=1;" parent="1" vertex="1">
          <mxGeometry x="160" y="640" width="40" height="80" as="geometry"/>
        </mxCell>
        <mxCell id="aa-At6rghmMv5g3kUMcR-10" value="" style="whiteSpace=wrap;html=1;" parent="1" vertex="1">
          <mxGeometry x="160" y="560" width="40" height="80" as="geometry"/>
        </mxCell>
        <mxCell id="aa-At6rghmMv5g3kUMcR-11" value="" style="whiteSpace=wrap;html=1;" parent="1" vertex="1">
          <mxGeometry x="160" y="480" width="40" height="80" as="geometry"/>
        </mxCell>
        <mxCell id="aa-At6rghmMv5g3kUMcR-12" value="" style="whiteSpace=wrap;html=1;" parent="1" vertex="1">
          <mxGeometry x="160" y="400" width="40" height="80" as="geometry"/>
        </mxCell>
        <mxCell id="aa-At6rghmMv5g3kUMcR-13" value="" style="whiteSpace=wrap;html=1;" parent="1" vertex="1">
          <mxGeometry x="160" y="300" width="40" height="100" as="geometry"/>
        </mxCell>
        <mxCell id="aa-At6rghmMv5g3kUMcR-14" value="" style="whiteSpace=wrap;html=1;" parent="1" vertex="1">
          <mxGeometry x="200" y="300" width="40" height="100" as="geometry"/>
        </mxCell>
        <mxCell id="aa-At6rghmMv5g3kUMcR-16" value="" style="whiteSpace=wrap;html=1;" parent="1" vertex="1">
          <mxGeometry x="200" y="200" width="40" height="100" as="geometry"/>
        </mxCell>
        <mxCell id="aa-At6rghmMv5g3kUMcR-17" value="" style="whiteSpace=wrap;html=1;" parent="1" vertex="1">
          <mxGeometry x="160" y="200" width="40" height="100" as="geometry"/>
        </mxCell>
        <mxCell id="aa-At6rghmMv5g3kUMcR-18" value="" style="whiteSpace=wrap;html=1;" parent="1" vertex="1">
          <mxGeometry x="120" y="200" width="40" height="100" as="geometry"/>
        </mxCell>
        <mxCell id="aa-At6rghmMv5g3kUMcR-19" value="" style="whiteSpace=wrap;html=1;" parent="1" vertex="1">
          <mxGeometry x="80" y="200" width="40" height="100" as="geometry"/>
        </mxCell>
        <mxCell id="aa-At6rghmMv5g3kUMcR-20" value="" style="whiteSpace=wrap;html=1;" parent="1" vertex="1">
          <mxGeometry x="40" y="200" width="40" height="100" as="geometry"/>
        </mxCell>
        <mxCell id="aa-At6rghmMv5g3kUMcR-21" value="" style="endArrow=none;html=1;exitX=0;exitY=1;exitDx=0;exitDy=0;" parent="1" source="aa-At6rghmMv5g3kUMcR-20" edge="1">
          <mxGeometry width="50" height="50" relative="1" as="geometry">
            <mxPoint x="75" y="400" as="sourcePoint"/>
            <mxPoint x="160" y="400" as="targetPoint"/>
          </mxGeometry>
        </mxCell>
        <mxCell id="aa-At6rghmMv5g3kUMcR-22" value="" style="whiteSpace=wrap;html=1;" parent="1" vertex="1">
          <mxGeometry x="120" y="1040" width="40" height="80" as="geometry"/>
        </mxCell>
        <mxCell id="aa-At6rghmMv5g3kUMcR-23" value="" style="whiteSpace=wrap;html=1;" parent="1" vertex="1">
          <mxGeometry x="80" y="1040" width="40" height="80" as="geometry"/>
        </mxCell>
      </root>
    </mxGraphModel>
  </diagram>
</mxfile>
